<svg width="45" height="28" viewBox="0 0 45 28" fill="none" xmlns="http://www.w3.org/2000/svg">
<path d="M30.6956 12C34.0878 12 36.8056 9.32 36.8056 6C36.8056 2.68 34.0878 0 30.6956 0C27.3035 0 24.5652 2.68 24.5652 6C24.5652 9.32 27.3035 12 30.6956 12ZM14.3478 12C17.74 12 20.4578 9.32 20.4578 6C20.4578 2.68 17.74 0 14.3478 0C10.9556 0 8.21737 2.68 8.21737 6C8.21737 9.32 10.9556 12 14.3478 12ZM14.3478 16C9.5865 16 0.043457 18.34 0.043457 23V28H28.6522V23C28.6522 18.34 19.1091 16 14.3478 16ZM30.6956 16C30.103 16 29.4287 16.04 28.7135 16.1C31.0839 17.78 32.7391 20.04 32.7391 23V28H45V23C45 18.34 35.4569 16 30.6956 16Z" fill="black"/>
</svg>
